<svg
    xmlns="http://www.w3.org/2000/svg"
    viewBox="0 0 79 81"
    id="vector">
    <defs>
        <clipPath id="clip_path">
            <path d="M 78.29 0.1 L 0.03 0.1 L 0.03 80.19 L 78.29 80.19 L 78.29 0.1 Z"/>
        </clipPath>
        <clipPath id="clip_path_1">
            <path d="M 78.29 0.1 L 0.03 0.1 L 0.03 80.19 L 78.29 80.19 L 78.29 0.1 Z"/>
        </clipPath>
        <clipPath id="clip_path_2">
            <path d="M 78.29 0.1 L 0.03 0.1 L 0.03 80.19 L 78.29 80.19 L 78.29 0.1 Z"/>
        </clipPath>
    </defs>
    <g id="group">
        <path
            id="path"
            clip-path="url(#clip_path)"
            d="M 43 11.191 C 43 11.191 42.907 3 38.976 3 C 35.045 3 35.445 11.191 35.445 11.191 C 35.445 11.191 20.492 10.302 17.918 29.035 C 15.622 45.676 15.938 54.246 10.585 60.724 C 10.585 60.724 9.238 62.918 4.275 63.298 C 4.275 63.298 2.77 63.371 3.03 64.603 C 3.03 64.603 2.77 65.954 3.969 66 L 14.256 66"
            fill="#00000000"
            stroke="#010101"
            stroke-width="5"/>
        <path
            id="path_1"
            clip-path="url(#clip_path_1)"
            d="M 35.032 11.191 C 35.032 11.191 35.125 3 39.053 3 C 42.981 3 42.581 11.191 42.581 11.191 C 42.581 11.191 57.522 10.302 60.094 29.035 C 62.388 45.676 62.072 54.246 67.421 60.724 C 67.421 60.724 68.767 62.918 73.726 63.298 C 73.726 63.298 75.23 63.371 74.97 64.603 C 74.97 64.603 75.23 65.954 74.032 66 L 14 66"
            fill="#00000000"
            stroke="#010101"
            stroke-width="5"/>
        <path
            id="path_2"
            clip-path="url(#clip_path_2)"
            d="M 32.133 67 L 45.742 67 C 45.742 67 47.699 73.851 40.832 75.794 C 40.343 75.928 39.845 76 39.338 76 L 38.715 76 C 38.137 76 37.568 75.919 37.017 75.758 C 35.042 75.167 31.191 73.224 32.151 67 L 32.133 67 Z"
            fill="#00000000"
            stroke="#010101"
            stroke-width="5"/>
    </g>
</svg>
