<svg width="30" height="30" viewBox="0 0 30 30" fill="none" xmlns="http://www.w3.org/2000/svg">
<g clip-path="url(#clip0_454_405)">
<path d="M10.3663 12.1337L13.2325 15L10.3663 17.8663C10.1319 18.1006 10.0002 18.4185 10.0002 18.75C10.0002 19.0815 10.1319 19.3994 10.3663 19.6337C10.6006 19.8681 10.9185 19.9998 11.25 19.9998C11.5815 19.9998 11.8994 19.8681 12.1337 19.6337L15 16.7675L17.8663 19.6337C17.9821 19.7502 18.1198 19.8427 18.2714 19.9057C18.4231 19.9688 18.5857 20.0013 18.75 20.0013C18.9143 20.0013 19.0769 19.9688 19.2286 19.9057C19.3802 19.8427 19.5179 19.7502 19.6337 19.6337C19.7499 19.5178 19.8421 19.38 19.905 19.2284C19.9679 19.0767 20.0003 18.9142 20.0003 18.75C20.0003 18.5858 19.9679 18.4233 19.905 18.2716C19.8421 18.12 19.7499 17.9822 19.6337 17.8663L16.7675 15L19.6337 12.1337C19.8681 11.8994 19.9998 11.5815 19.9998 11.25C19.9998 10.9185 19.8681 10.6006 19.6337 10.3663C19.3994 10.1319 19.0815 10.0002 18.75 10.0002C18.4185 10.0002 18.1006 10.1319 17.8663 10.3663L15 13.2325L12.1337 10.3663C11.8994 10.1319 11.5815 10.0002 11.25 10.0002C10.9185 10.0002 10.6006 10.1319 10.3663 10.3663C10.1319 10.6006 10.0002 10.9185 10.0002 11.25C10.0002 11.5815 10.1319 11.8994 10.3663 12.1337ZM0 15C0 23.2712 6.72875 30 15 30C23.2713 30 30 23.2712 30 15C30 6.72875 23.2713 0 15 0C6.72875 0 0 6.72875 0 15ZM2.5 15C2.5 8.1075 8.1075 2.5 15 2.5C21.8925 2.5 27.5 8.1075 27.5 15C27.5 21.8925 21.8925 27.5 15 27.5C8.1075 27.5 2.5 21.8925 2.5 15Z" fill="#001017"/>
</g>
<defs>
<clipPath id="clip0_454_405">
<rect width="30" height="30" fill="white" transform="matrix(-1 0 0 1 30 0)"/>
</clipPath>
</defs>
</svg>
