<svg
    xmlns="http://www.w3.org/2000/svg"
    viewBox="0 0 20 20"
    id="vector">
    <path
        id="path"
        d="M 10.001 18.958 C 5.06 18.958 1.043 14.941 1.043 9.999 C 1.043 5.058 5.06 1.041 10.001 1.041 C 14.943 1.041 18.96 5.058 18.96 9.999 C 18.96 14.941 14.943 18.958 10.001 18.958 Z M 10.001 2.291 C 5.751 2.291 2.293 5.749 2.293 9.999 C 2.293 14.249 5.751 17.708 10.001 17.708 C 14.251 17.708 17.71 14.249 17.71 9.999 C 17.71 5.749 14.251 2.291 10.001 2.291 Z"
        fill="#ffffff"/>
    <path
        id="path_1"
        d="M 7.642 12.984 C 7.484 12.984 7.326 12.926 7.201 12.801 C 6.959 12.559 6.959 12.159 7.201 11.917 L 11.917 7.201 C 12.159 6.959 12.559 6.959 12.801 7.201 C 13.042 7.442 13.042 7.842 12.801 8.084 L 8.084 12.801 C 7.967 12.926 7.801 12.984 7.642 12.984 Z"
        fill="#ffffff"/>
    <path
        id="path_2"
        d="M 12.359 12.984 C 12.201 12.984 12.042 12.926 11.917 12.801 L 7.201 8.084 C 6.959 7.842 6.959 7.442 7.201 7.201 C 7.442 6.959 7.842 6.959 8.084 7.201 L 12.801 11.917 C 13.042 12.159 13.042 12.559 12.801 12.801 C 12.676 12.926 12.517 12.984 12.359 12.984 Z"
        fill="#ffffff"/>
</svg>
