<svg
    xmlns="http://www.w3.org/2000/svg"
    viewBox="0 0 25 24"
    id="vector">
    <path
        id="path"
        d="M 12.62 13.531 C 12.601 13.531 12.571 13.531 12.55 13.531 C 12.521 13.531 12.481 13.531 12.45 13.531 C 10.181 13.46 8.48 11.691 8.48 9.51 C 8.48 7.29 10.29 5.48 12.51 5.48 C 14.731 5.48 16.541 7.29 16.541 9.51 C 16.531 11.7 14.821 13.46 12.651 13.531 C 12.63 13.531 12.63 13.531 12.62 13.531 Z M 12.5 6.97 C 11.101 6.97 9.97 8.11 9.97 9.5 C 9.97 10.87 11.04 11.981 12.401 12.031 C 12.431 12.021 12.531 12.021 12.63 12.031 C 13.97 11.96 15.021 10.861 15.031 9.5 C 15.031 8.11 13.901 6.97 12.5 6.97 Z"
        fill="#008fc4"/>
    <path
        id="path_1"
        d="M 12.501 22.75 C 9.811 22.75 7.241 21.75 5.251 19.93 C 5.071 19.77 4.991 19.53 5.011 19.3 C 5.141 18.11 5.881 17 7.111 16.18 C 10.091 14.2 14.921 14.2 17.891 16.18 C 19.121 17.01 19.861 18.11 19.991 19.3 C 20.021 19.54 19.931 19.77 19.751 19.93 C 17.761 21.75 15.191 22.75 12.501 22.75 Z M 6.581 19.1 C 8.241 20.49 10.331 21.25 12.501 21.25 C 14.671 21.25 16.761 20.49 18.421 19.1 C 18.241 18.49 17.761 17.9 17.051 17.42 C 14.591 15.78 10.421 15.78 7.941 17.42 C 7.231 17.9 6.761 18.49 6.581 19.1 Z"
        fill="#008fc4"/>
    <path
        id="path_2"
        d="M 12.5 22.75 C 6.57 22.75 1.75 17.93 1.75 12 C 1.75 6.07 6.57 1.25 12.5 1.25 C 18.43 1.25 23.25 6.07 23.25 12 C 23.25 17.93 18.43 22.75 12.5 22.75 Z M 12.5 2.75 C 7.4 2.75 3.25 6.9 3.25 12 C 3.25 17.1 7.4 21.25 12.5 21.25 C 17.6 21.25 21.75 17.1 21.75 12 C 21.75 6.9 17.6 2.75 12.5 2.75 Z"
        fill="#008fc4"/>
</svg>
