<svg width="16" height="16" viewBox="0 0 16 16" fill="none" xmlns="http://www.w3.org/2000/svg">
<g opacity="0.6">
<path d="M13.9948 2.66667H11.9281C11.7734 1.91428 11.364 1.23823 10.769 0.752479C10.1739 0.266727 9.42959 0.000969683 8.66146 0L7.32812 0C6.55999 0.000969683 5.81567 0.266727 5.22062 0.752479C4.62558 1.23823 4.21619 1.91428 4.06146 2.66667H1.99479C1.81798 2.66667 1.64841 2.7369 1.52339 2.86193C1.39836 2.98695 1.32813 3.15652 1.32812 3.33333C1.32813 3.51014 1.39836 3.67971 1.52339 3.80474C1.64841 3.92976 1.81798 4 1.99479 4H2.66146V12.6667C2.66252 13.5504 3.01405 14.3976 3.63894 15.0225C4.26383 15.6474 5.11106 15.9989 5.99479 16H9.99479C10.8785 15.9989 11.7258 15.6474 12.3506 15.0225C12.9755 14.3976 13.3271 13.5504 13.3281 12.6667V4H13.9948C14.1716 4 14.3412 3.92976 14.4662 3.80474C14.5912 3.67971 14.6615 3.51014 14.6615 3.33333C14.6615 3.15652 14.5912 2.98695 14.4662 2.86193C14.3412 2.7369 14.1716 2.66667 13.9948 2.66667ZM7.32812 1.33333H8.66146C9.07497 1.33384 9.47821 1.46225 9.81587 1.70096C10.1535 1.93967 10.4091 2.27699 10.5475 2.66667H5.44212C5.58051 2.27699 5.83606 1.93967 6.17372 1.70096C6.51137 1.46225 6.91461 1.33384 7.32812 1.33333ZM11.9948 12.6667C11.9948 13.1971 11.7841 13.7058 11.409 14.0809C11.0339 14.456 10.5252 14.6667 9.99479 14.6667H5.99479C5.46436 14.6667 4.95565 14.456 4.58058 14.0809C4.20551 13.7058 3.99479 13.1971 3.99479 12.6667V4H11.9948V12.6667Z" fill="#ff0000"/>
<path d="M6.66667 12C6.84348 12 7.01305 11.9297 7.13807 11.8047C7.2631 11.6797 7.33333 11.5101 7.33333 11.3333V7.33329C7.33333 7.15648 7.2631 6.98691 7.13807 6.86189C7.01305 6.73686 6.84348 6.66663 6.66667 6.66663C6.48986 6.66663 6.32029 6.73686 6.19526 6.86189C6.07024 6.98691 6 7.15648 6 7.33329V11.3333C6 11.5101 6.07024 11.6797 6.19526 11.8047C6.32029 11.9297 6.48986 12 6.66667 12ZM9.33333 12C9.51014 12 9.67971 11.9297 9.80474 11.8047C9.92976 11.6797 10 11.5101 10 11.3333V7.33329C10 7.15648 9.92976 6.98691 9.80474 6.86189C9.67971 6.73686 9.51014 6.66663 9.33333 6.66663C9.15652 6.66663 8.98695 6.73686 8.86193 6.86189C8.7369 6.98691 8.66667 7.15648 8.66667 7.33329V11.3333C8.66667 11.5101 8.7369 11.6797 8.86193 11.8047C8.98695 11.9297 9.15652 12 9.33333 12Z" fill="#ff0000"/>
</g>
</svg>
