<svg width="70" height="70" viewBox="0 0 70 70" fill="none" xmlns="http://www.w3.org/2000/svg">
<path d="M51.1717 25.3247C50.6231 25.0415 50.0079 24.9214 49.396 24.978C48.784 25.0347 48.1999 25.2658 47.71 25.6452C47.6451 25.6951 47.5838 25.7498 47.5267 25.8088L44.5983 28.8312C44.2467 24.4587 40.6967 21 36.3333 21H21.3333C19.124 21.0018 17.0057 21.9001 15.4433 23.4978C13.8809 25.0955 13.0022 27.2619 13 29.5216V39.7495C13 44.4492 16.7383 48.2727 21.3333 48.2727H36.3333C40.715 48.2727 44.28 44.7833 44.6033 40.3853L47.53 43.3753C47.5867 43.4315 47.645 43.4827 47.7083 43.5321C48.199 43.9106 48.7834 44.1411 49.3955 44.1974C50.0076 44.2537 50.6228 44.1337 51.1717 43.8509C51.7222 43.5718 52.1853 43.1406 52.5085 42.6061C52.8316 42.0716 53.0019 41.4552 53 40.8268V28.3522C53 27.0617 52.3 25.9009 51.1717 25.3247ZM36.3333 44.8634H21.3333C18.5767 44.8634 16.3333 42.569 16.3333 39.7495V29.5216C16.3333 26.7021 18.5767 24.4076 21.3333 24.4076H36.3333C39.09 24.4076 41.3333 26.7021 41.3333 29.5216V39.7495C41.3333 42.569 39.09 44.8634 36.3333 44.8634ZM44.6667 35.6293V33.6025L49.6667 28.4408L49.7083 40.7791L44.6667 35.6276V35.6293Z" fill="#001017" fill-opacity="0.5"/>
</svg>
