<svg
    xmlns="http://www.w3.org/2000/svg"
    viewBox="0 0 44 44"
    id="vector">
    <path
        id="path"
        d="M 33.785 3.667 C 30.186 3.667 27.238 6.615 27.238 10.213 C 27.238 10.8 27.324 11.367 27.471 11.909 L 15.356 17.967 C 14.153 16.441 12.296 15.454 10.213 15.454 C 6.615 15.454 3.667 18.399 3.667 22 C 3.667 25.601 6.615 28.549 10.213 28.549 C 12.293 28.549 14.153 27.559 15.354 26.036 L 27.471 32.093 C 27.324 32.636 27.238 33.2 27.238 33.785 C 27.238 37.385 30.186 40.333 33.785 40.333 C 37.385 40.333 40.333 37.385 40.333 33.785 C 40.333 30.186 37.385 27.238 33.785 27.238 C 31.704 27.238 29.847 28.226 28.644 29.754 L 16.529 23.694 C 16.676 23.154 16.762 22.587 16.762 22 C 16.762 21.413 16.676 20.849 16.529 20.306 L 28.646 14.249 C 29.849 15.774 31.704 16.762 33.787 16.762 C 37.385 16.762 40.333 13.814 40.333 10.213 C 40.333 6.615 37.385 3.667 33.787 3.667 L 33.785 3.667 Z M 33.785 6.287 C 35.97 6.287 37.715 8.03 37.715 10.215 C 37.715 12.401 35.97 14.144 33.785 14.144 C 31.602 14.144 29.856 12.401 29.856 10.215 C 29.856 8.03 31.602 6.287 33.785 6.287 Z M 10.215 18.072 C 12.398 18.072 14.144 19.815 14.144 22 C 14.144 24.185 12.398 25.928 10.215 25.928 C 8.03 25.928 6.285 24.185 6.285 22 C 6.285 19.815 8.03 18.072 10.215 18.072 Z M 33.785 29.856 C 35.97 29.856 37.715 31.602 37.715 33.785 C 37.715 35.97 35.97 37.715 33.785 37.715 C 31.602 37.715 29.856 35.97 29.856 33.785 C 29.856 31.602 31.602 29.856 33.785 29.856 Z"
        fill="#ffffff"/>
    <path
        id="path_1"
        d="M 22.002 41.708 C 11.132 41.708 2.295 32.87 2.295 21.998 C 2.295 11.128 11.132 2.29 22.002 2.29 C 32.875 2.29 41.712 11.128 41.712 21.998 C 41.712 32.87 32.875 41.708 22.002 41.708 Z M 22.002 5.04 C 12.652 5.04 5.045 12.648 5.045 21.998 C 5.045 31.348 12.652 38.958 22.002 38.958 C 31.352 38.958 38.962 31.348 38.962 21.998 C 38.962 12.648 31.352 5.04 22.002 5.04 Z"
        fill="#ffffff"/>
    <path
        id="path_2"
        d="M 16.812 28.565 C 16.465 28.565 16.117 28.437 15.842 28.162 C 15.31 27.63 15.31 26.75 15.842 26.217 L 26.217 15.842 C 26.75 15.31 27.63 15.31 28.162 15.842 C 28.692 16.372 28.692 17.252 28.162 17.785 L 17.785 28.162 C 17.527 28.437 17.162 28.565 16.812 28.565 Z"
        fill="#ffffff"/>
    <path
        id="path_3"
        d="M 27.19 28.565 C 26.842 28.565 26.492 28.437 26.217 28.162 L 15.842 17.785 C 15.31 17.252 15.31 16.372 15.842 15.842 C 16.372 15.31 17.252 15.31 17.785 15.842 L 28.162 26.217 C 28.692 26.75 28.692 27.63 28.162 28.162 C 27.887 28.437 27.537 28.565 27.19 28.565 Z"
        fill="#ffffff"/>
    <path
        id="path_4"
        d="M 22 0 L 22 0 C 27.833 0 33.432 2.319 37.556 6.444 C 41.681 10.568 44 16.167 44 22 L 44 22 C 44 27.833 41.681 33.432 37.556 37.556 C 33.432 41.681 27.833 44 22 44 L 22 44 C 16.167 44 10.568 41.681 6.444 37.556 C 2.319 33.432 0 27.833 0 22 L 0 22 C 0 16.167 2.319 10.568 6.444 6.444 C 10.568 2.319 16.167 0 22 0 Z"
        fill="#000000"
        fill-opacity="0.25"/>
</svg>
