<svg width="30" height="30" viewBox="0 0 30 30" fill="none" xmlns="http://www.w3.org/2000/svg">
<rect x="0.375" y="0.375" width="29.25" height="29.25" rx="14.625" stroke="#001017" stroke-width="0.75"/>
<path d="M20.8403 14.5954L17.0221 10.6579C16.9192 10.5554 16.7814 10.4987 16.6384 10.5C16.4954 10.5013 16.3586 10.5605 16.2574 10.6648C16.1563 10.769 16.0989 10.9101 16.0977 11.0576C16.0965 11.2051 16.1514 11.3472 16.2508 11.4533L19.1379 14.4306H9.54546C9.40079 14.4306 9.26206 14.4899 9.15976 14.5953C9.05747 14.7008 9 14.8439 9 14.9931C9 15.1423 9.05747 15.2853 9.15976 15.3908C9.26206 15.4963 9.40079 15.5556 9.54546 15.5556H19.1379L16.2508 18.5329C16.1987 18.5848 16.1571 18.6469 16.1286 18.7155C16.1 18.7841 16.0849 18.8579 16.0843 18.9326C16.0837 19.0073 16.0975 19.0814 16.1249 19.1505C16.1523 19.2196 16.1928 19.2824 16.244 19.3352C16.2953 19.3881 16.3562 19.4298 16.4232 19.4581C16.4902 19.4864 16.562 19.5006 16.6345 19.5C16.7069 19.4993 16.7785 19.4838 16.845 19.4543C16.9116 19.4249 16.9718 19.382 17.0221 19.3283L20.8403 15.3908C20.9426 15.2853 21 15.1422 21 14.9931C21 14.8439 20.9426 14.7009 20.8403 14.5954Z" fill="#001017"/>
</svg>
