<svg width="16" height="16" viewBox="0 0 16 16" fill="none" xmlns="http://www.w3.org/2000/svg">
<g opacity="0.6" clip-path="url(#clip0_193_439)">
<path d="M11.207 2C10.5504 2.01079 9.90816 2.2045 9.34507 2.56155C8.78197 2.91861 8.318 3.42637 8 4.03356C7.682 3.42637 7.21803 2.91861 6.65493 2.56155C6.09184 2.2045 5.44956 2.01079 4.79296 2C3.74626 2.04806 2.76011 2.53196 2.04994 3.34599C1.33977 4.16002 0.963318 5.238 1.00282 6.34442C1.00282 9.14642 3.79353 12.2066 6.13409 14.2815C6.65667 14.7456 7.3174 15 8 15C8.6826 15 9.34333 14.7456 9.86591 14.2815C12.2065 12.2066 14.9972 9.14642 14.9972 6.34442C15.0367 5.238 14.6602 4.16002 13.9501 3.34599C13.2399 2.53196 12.2537 2.04806 11.207 2ZM9.11663 13.3386C8.80408 13.6168 8.40861 13.7693 8 13.7693C7.59139 13.7693 7.19592 13.6168 6.88337 13.3386C3.88741 10.6821 2.16902 8.13334 2.16902 6.34442C2.12916 5.56471 2.38265 4.79998 2.8742 4.21701C3.36575 3.63404 4.05548 3.28013 4.79296 3.23246C5.53044 3.28013 6.22017 3.63404 6.71172 4.21701C7.20327 4.79998 7.45676 5.56471 7.4169 6.34442C7.4169 6.50785 7.47834 6.6646 7.58769 6.78016C7.69704 6.89573 7.84535 6.96065 8 6.96065C8.15465 6.96065 8.30296 6.89573 8.41231 6.78016C8.52166 6.6646 8.5831 6.50785 8.5831 6.34442C8.54324 5.56471 8.79673 4.79998 9.28828 4.21701C9.77983 3.63404 10.4696 3.28013 11.207 3.23246C11.9445 3.28013 12.6343 3.63404 13.1258 4.21701C13.6174 4.79998 13.8708 5.56471 13.831 6.34442C13.831 8.13334 12.1126 10.6821 9.11663 13.3362V13.3386Z" fill="#001017"/>
</g>
<defs>
<clipPath id="clip0_193_439">
<rect width="16" height="16" fill="white"/>
</clipPath>
</defs>
</svg>
