<svg width="14" height="16" viewBox="0 0 14 16" fill="none" xmlns="http://www.w3.org/2000/svg">
<path d="M11.75 15.5C11.125 15.5 10.5938 15.2812 10.1562 14.8438C9.71875 14.4062 9.5 13.875 9.5 13.25C9.5 13.175 9.51875 13 9.55625 12.725L4.2875 9.65C4.0875 9.8375 3.85625 9.98438 3.59375 10.0906C3.33125 10.1969 3.05 10.25 2.75 10.25C2.125 10.25 1.59375 10.0312 1.15625 9.59375C0.71875 9.15625 0.5 8.625 0.5 8C0.5 7.375 0.71875 6.84375 1.15625 6.40625C1.59375 5.96875 2.125 5.75 2.75 5.75C3.05 5.75 3.33125 5.80312 3.59375 5.90938C3.85625 6.01562 4.0875 6.1625 4.2875 6.35L9.55625 3.275C9.53125 3.1875 9.51562 3.10312 9.50937 3.02187C9.50313 2.94062 9.5 2.85 9.5 2.75C9.5 2.125 9.71875 1.59375 10.1562 1.15625C10.5938 0.71875 11.125 0.5 11.75 0.5C12.375 0.5 12.9062 0.71875 13.3438 1.15625C13.7812 1.59375 14 2.125 14 2.75C14 3.375 13.7812 3.90625 13.3438 4.34375C12.9062 4.78125 12.375 5 11.75 5C11.45 5 11.1687 4.94688 10.9062 4.84062C10.6438 4.73438 10.4125 4.5875 10.2125 4.4L4.94375 7.475C4.96875 7.5625 4.98438 7.64687 4.99063 7.72812C4.99688 7.80937 5 7.9 5 8C5 8.1 4.99688 8.19063 4.99063 8.27188C4.98438 8.35313 4.96875 8.4375 4.94375 8.525L10.2125 11.6C10.4125 11.4125 10.6438 11.2656 10.9062 11.1594C11.1687 11.0531 11.45 11 11.75 11C12.375 11 12.9062 11.2188 13.3438 11.6562C13.7812 12.0938 14 12.625 14 13.25C14 13.875 13.7812 14.4062 13.3438 14.8438C12.9062 15.2812 12.375 15.5 11.75 15.5Z" fill="white"/>
</svg>
