<svg
    xmlns="http://www.w3.org/2000/svg"
    viewBox="0 0 18 18"
    id="vector">
    <path
        id="path"
        d="M 13.821 1.5 C 12.349 1.5 11.143 2.706 11.143 4.178 C 11.143 4.418 11.178 4.65 11.238 4.872 L 6.282 7.35 C 5.79 6.726 5.03 6.322 4.178 6.322 C 2.706 6.322 1.5 7.527 1.5 9 C 1.5 10.473 2.706 11.679 4.178 11.679 C 5.029 11.679 5.79 11.274 6.281 10.651 L 11.238 13.129 C 11.178 13.351 11.143 13.582 11.143 13.821 C 11.143 15.294 12.349 16.5 13.821 16.5 C 15.294 16.5 16.5 15.294 16.5 13.821 C 16.5 12.349 15.294 11.143 13.821 11.143 C 12.97 11.143 12.21 11.547 11.718 12.172 L 6.762 9.693 C 6.822 9.472 6.857 9.24 6.857 9 C 6.857 8.76 6.822 8.529 6.762 8.307 L 11.719 5.829 C 12.211 6.453 12.97 6.857 13.822 6.857 C 15.294 6.857 16.5 5.651 16.5 4.178 C 16.5 2.706 15.294 1.5 13.822 1.5 L 13.821 1.5 Z M 13.821 2.572 C 14.715 2.572 15.429 3.285 15.429 4.179 C 15.429 5.073 14.715 5.786 13.821 5.786 C 12.928 5.786 12.214 5.073 12.214 4.179 C 12.214 3.285 12.928 2.572 13.821 2.572 Z M 4.179 7.393 C 5.072 7.393 5.786 8.106 5.786 9 C 5.786 9.894 5.072 10.607 4.179 10.607 C 3.285 10.607 2.571 9.894 2.571 9 C 2.571 8.106 3.285 7.393 4.179 7.393 Z M 13.821 12.214 C 14.715 12.214 15.429 12.928 15.429 13.821 C 15.429 14.715 14.715 15.429 13.821 15.429 C 12.928 15.429 12.214 14.715 12.214 13.821 C 12.214 12.928 12.928 12.214 13.821 12.214 Z"
        fill="#ffffff"/>
</svg>
