<svg width="70" height="70" viewBox="0 0 70 70" fill="none" xmlns="http://www.w3.org/2000/svg">
<path d="M47.2289 39.4441C45.9702 39.4452 44.7307 39.7528 43.6172 40.3405C42.5038 40.9281 41.5499 41.7782 40.8379 42.8173L30.002 37.9192C30.7717 36.0587 30.7746 33.9689 30.0103 32.1062L40.8313 27.1831C41.8865 28.711 43.4538 29.8096 45.2488 30.2797C47.0439 30.7498 48.9478 30.5603 50.6152 29.7455C52.2827 28.9307 53.6031 27.5446 54.3372 25.8386C55.0712 24.1327 55.1701 22.2198 54.616 20.4471C54.062 18.6743 52.8915 17.1591 51.3171 16.1763C49.7427 15.1934 47.8685 14.808 46.0345 15.09C44.2006 15.372 42.5283 16.3027 41.3211 17.7133C40.1139 19.1238 39.4516 20.9208 39.4545 22.7783C39.4616 23.218 39.5061 23.6562 39.5877 24.0883L28.0842 29.3213C26.9794 28.2851 25.5963 27.5945 24.1047 27.3344C22.6132 27.0743 21.0783 27.256 19.6885 27.8572C18.2988 28.4584 17.1147 29.4529 16.2818 30.7185C15.4488 31.9842 15.0033 33.4658 15 34.9815C14.9967 36.4971 15.4357 37.9807 16.263 39.25C17.0904 40.5193 18.2701 41.519 19.6572 42.1263C21.0443 42.7336 22.5785 42.9221 24.0711 42.6685C25.5637 42.415 26.9499 41.7305 28.0593 40.6991L39.5927 45.9121C39.5126 46.3438 39.4686 46.7814 39.4612 47.2204C39.4608 48.7589 39.9163 50.2629 40.7699 51.5422C41.6234 52.8215 42.8368 53.8187 44.2566 54.4076C45.6763 54.9965 47.2386 55.1507 48.7459 54.8506C50.2532 54.5506 51.6377 53.8098 52.7244 52.7219C53.8111 51.634 54.5511 50.248 54.8508 48.7391C55.1505 47.2301 54.9965 45.6661 54.4083 44.2448C53.82 42.8235 52.8239 41.6088 51.546 40.7543C50.2681 39.8997 48.7657 39.4438 47.2289 39.4441ZM47.2289 18.3336C48.1071 18.3332 48.9657 18.5936 49.696 19.0818C50.4264 19.57 50.9957 20.2641 51.332 21.0762C51.6683 21.8884 51.7565 22.7821 51.5854 23.6445C51.4143 24.5068 50.9915 25.2989 50.3707 25.9207C49.7498 26.5425 48.9587 26.9659 48.0974 27.1376C47.2361 27.3092 46.3433 27.2213 45.5319 26.8849C44.7205 26.5486 44.027 25.9789 43.5391 25.2479C43.0511 24.5169 42.7907 23.6575 42.7907 22.7783C42.7916 21.6001 43.2594 20.4703 44.0915 19.637C44.9236 18.8037 46.0519 18.3349 47.2289 18.3336ZM22.8136 39.4441C21.9354 39.4445 21.0768 39.1841 20.3465 38.6959C19.6161 38.2077 19.0468 37.5136 18.7105 36.7015C18.3742 35.8893 18.286 34.9956 18.4571 34.1333C18.6283 33.271 19.051 32.4788 19.6719 31.857C20.2927 31.2353 21.0838 30.8118 21.9451 30.6401C22.8064 30.4685 23.6993 30.5564 24.5106 30.8928C25.322 31.2291 26.0155 31.7988 26.5035 32.5298C26.9914 33.2608 27.2518 34.1202 27.2518 34.9994C27.2505 36.1775 26.7826 37.307 25.9506 38.1402C25.1186 38.9735 23.9904 39.4424 22.8136 39.4441ZM47.2289 51.6652C46.3508 51.6652 45.4924 51.4045 44.7622 50.9161C44.0321 50.4277 43.463 49.7335 43.127 48.9213C42.7909 48.1092 42.703 47.2155 42.8743 46.3533C43.0456 45.4911 43.4685 44.6991 44.0894 44.0775C44.7104 43.4559 45.5015 43.0325 46.3627 42.861C47.224 42.6895 48.1167 42.7776 48.928 43.114C49.7393 43.4504 50.4327 44.0201 50.9206 44.751C51.4084 45.482 51.6688 46.3413 51.6688 47.2204C51.6679 48.399 51.1999 49.529 50.3674 50.3624C49.535 51.1957 48.4062 51.6643 47.2289 51.6652Z" fill="#019CDE" fill-opacity="0.5"/>
</svg>
