<svg width="24" height="24" viewBox="0 0 24 24" fill="none" xmlns="http://www.w3.org/2000/svg">
<g clip-path="url(#clip0_583_563)">
<path d="M19 17C17.9465 16.9996 16.9118 16.7216 16 16.194C15.0882 16.7216 14.0535 16.9996 13 17H11C9.94509 16.9987 8.90959 16.7163 8 16.182C7.09045 16.7164 6.05492 16.9988 5 17H4C2.94562 16.9996 1.91028 16.7191 1 16.187V21C1 21.7956 1.31607 22.5587 1.87868 23.1213C2.44129 23.6839 3.20435 24 4 24H20C20.7956 24 21.5587 23.6839 22.1213 23.1213C22.6839 22.5587 23 21.7956 23 21V16.188C22.0895 16.7193 21.0542 16.9995 20 17H19ZM17 0V6H15V0H9V6H7V0H2.2L0.024 9.783L0 11C0 12.0609 0.421427 13.0783 1.17157 13.8284C1.92172 14.5786 2.93913 15 4 15H5C5.56989 14.9982 6.13273 14.8738 6.65034 14.6354C7.16795 14.3969 7.62824 14.0499 8 13.618C8.37176 14.0499 8.83205 14.3969 9.34966 14.6354C9.86727 14.8738 10.4301 14.9982 11 15H13C13.5678 15.0003 14.1292 14.8794 14.6465 14.6454C15.1639 14.4114 15.6253 14.0696 16 13.643C16.3747 14.0696 16.8361 14.4114 17.3535 14.6454C17.8708 14.8794 18.4322 15.0003 19 15H20C21.0609 15 22.0783 14.5786 22.8284 13.8284C23.5786 13.0783 24 12.0609 24 11V10L21.8 0H17Z" fill="#001017" fill-opacity="0.5"/>
</g>
<defs>
<clipPath id="clip0_583_563">
<rect width="24" height="24" fill="white"/>
</clipPath>
</defs>
</svg>
