<svg width="27" height="19" viewBox="0 0 27 19" fill="none" xmlns="http://www.w3.org/2000/svg">
<path d="M26.1059 9.1375L24.1031 4.60625C24.033 4.44555 23.9178 4.30865 23.7714 4.21214C23.625 4.11562 23.4538 4.06364 23.2784 4.0625H18.43L18.72 1.44344C18.7343 1.3163 18.7215 1.18757 18.6824 1.06574C18.6434 0.943905 18.579 0.831719 18.4934 0.736562C18.4087 0.642682 18.3053 0.567573 18.1898 0.516068C18.0743 0.464562 17.9493 0.437799 17.8228 0.4375H5.34375C5.1034 0.4375 4.87289 0.53298 4.70293 0.702935C4.53298 0.872889 4.4375 1.1034 4.4375 1.34375C4.4375 1.5841 4.53298 1.81461 4.70293 1.98457C4.87289 2.15452 5.1034 2.25 5.34375 2.25H9.875C10.1154 2.25 10.3459 2.34548 10.5158 2.51543C10.6858 2.68539 10.7812 2.9159 10.7812 3.15625C10.7812 3.3966 10.6858 3.62711 10.5158 3.79707C10.3459 3.96702 10.1154 4.0625 9.875 4.0625H3.53125C3.2909 4.0625 3.06039 4.15798 2.89043 4.32793C2.72048 4.49789 2.625 4.7284 2.625 4.96875C2.625 5.2091 2.72048 5.43961 2.89043 5.60956C3.06039 5.77952 3.2909 5.875 3.53125 5.875H12.5938C12.8341 5.875 13.0646 5.97048 13.2346 6.14043C13.4045 6.31039 13.5 6.5409 13.5 6.78125C13.5 7.0216 13.4045 7.25211 13.2346 7.42206C13.0646 7.59202 12.8341 7.6875 12.5938 7.6875H6.25C6.00965 7.6875 5.77914 7.78298 5.60918 7.95293C5.43923 8.12289 5.34375 8.3534 5.34375 8.59375C5.34375 8.8341 5.43923 9.06461 5.60918 9.23456C5.77914 9.40452 6.00965 9.5 6.25 9.5H9.875C10.1154 9.5 10.3459 9.59548 10.5158 9.76543C10.6858 9.93539 10.7812 10.1659 10.7812 10.4062C10.7812 10.6466 10.6858 10.8771 10.5158 11.0471C10.3459 11.217 10.1154 11.3125 9.875 11.3125H2.625C2.38465 11.3125 2.15414 11.408 1.98418 11.5779C1.81423 11.7479 1.71875 11.9784 1.71875 12.2187C1.71875 12.4591 1.81423 12.6896 1.98418 12.8596C2.15414 13.0295 2.38465 13.125 2.625 13.125H4.4375C4.67785 13.125 4.90836 13.2205 5.07832 13.3904C5.24827 13.5604 5.34375 13.7909 5.34375 14.0312C5.34375 14.2716 5.24827 14.5021 5.07832 14.6721C4.90836 14.842 4.67785 14.9375 4.4375 14.9375H3.53125C3.2909 14.9375 3.06039 15.033 2.89043 15.2029C2.72048 15.3729 2.625 15.6034 2.625 15.8437C2.625 16.0841 2.72048 16.3146 2.89043 16.4846C3.06039 16.6545 3.2909 16.75 3.53125 16.75H6.11406C6.21192 17.1322 6.39817 17.4861 6.65781 17.7831C6.87783 18.0291 7.14744 18.2257 7.4489 18.3601C7.75036 18.4944 8.07684 18.5634 8.40688 18.5625C8.96535 18.5465 9.50668 18.366 9.96294 18.0436C10.4192 17.7211 10.7701 17.2711 10.9716 16.75H17.8953C17.9932 17.1322 18.1794 17.4861 18.4391 17.7831C18.6591 18.0291 18.9287 18.2257 19.2302 18.3601C19.5316 18.4944 19.8581 18.5634 20.1881 18.5625C20.7466 18.5465 21.2879 18.366 21.7442 18.0436C22.2005 17.7211 22.5513 17.2711 22.7528 16.75H24.5653C24.7894 16.7514 25.006 16.6697 25.1733 16.5207C25.3407 16.3718 25.4469 16.1661 25.4716 15.9434L26.1694 9.59969C26.1942 9.44274 26.1721 9.28195 26.1059 9.1375ZM8.40688 16.75C8.33173 16.7532 8.25681 16.7394 8.18776 16.7096C8.1187 16.6798 8.05729 16.6347 8.00812 16.5778C7.93699 16.4898 7.88494 16.388 7.8553 16.2787C7.82565 16.1695 7.81906 16.0553 7.83594 15.9434C7.85908 15.689 7.96894 15.4502 8.14712 15.2671C8.32529 15.084 8.56097 14.9676 8.81469 14.9375C8.88984 14.9343 8.96475 14.9481 9.0338 14.9779C9.10286 15.0077 9.16427 15.0528 9.21344 15.1097C9.28458 15.1977 9.33662 15.2995 9.36627 15.4088C9.39591 15.518 9.4025 15.6322 9.38562 15.7441C9.36248 15.9985 9.25262 16.2373 9.07445 16.4204C8.89627 16.6035 8.6606 16.7199 8.40688 16.75ZM20.1881 16.75C20.113 16.7532 20.0381 16.7394 19.969 16.7096C19.9 16.6798 19.8385 16.6347 19.7894 16.5778C19.7182 16.4898 19.6662 16.388 19.6365 16.2787C19.6069 16.1695 19.6003 16.0553 19.6172 15.9434C19.6403 15.689 19.7502 15.4502 19.9284 15.2671C20.1065 15.084 20.3422 14.9676 20.5959 14.9375C20.6711 14.9343 20.746 14.9481 20.8151 14.9779C20.8841 15.0077 20.9455 15.0528 20.9947 15.1097C21.0658 15.1977 21.1179 15.2995 21.1475 15.4088C21.1772 15.518 21.1838 15.6322 21.1669 15.7441C21.1437 15.9985 21.0339 16.2373 20.8557 16.4204C20.6775 16.6035 20.4418 16.7199 20.1881 16.75ZM24.2662 10.4062H20.2606C20.1342 10.406 20.0092 10.3792 19.8937 10.3277C19.7782 10.2762 19.6747 10.2011 19.59 10.1072C19.5045 10.012 19.4401 9.89985 19.401 9.77801C19.362 9.65618 19.3492 9.52745 19.3634 9.40031L19.6625 6.68156C19.6892 6.46052 19.7964 6.25704 19.9635 6.10995C20.1307 5.96286 20.3461 5.88245 20.5687 5.88406H22.6803L24.375 9.645L24.2662 10.4062Z" fill="#001017"/>
<path d="M2.625 9.5C2.86535 9.5 3.09586 9.40452 3.26582 9.23457C3.43577 9.06461 3.53125 8.8341 3.53125 8.59375C3.53125 8.3534 3.43577 8.12289 3.26582 7.95293C3.09586 7.78298 2.86535 7.6875 2.625 7.6875H1.71875C1.4784 7.6875 1.24789 7.78298 1.07793 7.95293C0.90798 8.12289 0.8125 8.3534 0.8125 8.59375C0.8125 8.8341 0.90798 9.06461 1.07793 9.23457C1.24789 9.40452 1.4784 9.5 1.71875 9.5H2.625Z" fill="#001017"/>
</svg>
