<svg width="24" height="16" viewBox="0 0 24 16" fill="none" xmlns="http://www.w3.org/2000/svg">
<path d="M13 0H5C2.243 0 0 2.243 0 5V11C0 13.757 2.243 16 5 16H13C15.757 16 18 13.757 18 11V5C18 2.243 15.757 0 13 0ZM12 9H10V11C10 11.2652 9.89464 11.5196 9.70711 11.7071C9.51957 11.8946 9.26522 12 9 12C8.73478 12 8.48043 11.8946 8.29289 11.7071C8.10536 11.5196 8 11.2652 8 11V9H6C5.73478 9 5.48043 8.89464 5.29289 8.70711C5.10536 8.51957 5 8.26522 5 8C5 7.73478 5.10536 7.48043 5.29289 7.29289C5.48043 7.10536 5.73478 7 6 7H8V5C8 4.73478 8.10536 4.48043 8.29289 4.29289C8.48043 4.10536 8.73478 4 9 4C9.26522 4 9.51957 4.10536 9.70711 4.29289C9.89464 4.48043 10 4.73478 10 5V7H12C12.2652 7 12.5196 7.10536 12.7071 7.29289C12.8946 7.48043 13 7.73478 13 8C13 8.26522 12.8946 8.51957 12.7071 8.70711C12.5196 8.89464 12.2652 9 12 9ZM24 4.303V11.622C24 12.379 23.58 13.059 22.903 13.397C22.5736 13.5625 22.2044 13.6327 21.8372 13.5995C21.47 13.5662 21.1194 13.431 20.825 13.209C20.788 13.181 20 12.399 20 12.399V3.534C20 3.534 20.786 2.745 20.825 2.716C21.429 2.262 22.224 2.189 22.903 2.528C23.582 2.867 24 3.546 24 4.303Z" fill="#038DCE"/>
</svg>
