<svg width="30" height="30" viewBox="0 0 30 30" fill="none" xmlns="http://www.w3.org/2000/svg">
<path d="M21.9999 7.70409C21.9987 6.45688 21.5164 5.26111 20.659 4.3792C19.8016 3.49729 18.6391 3.00127 17.4265 3H5.57297C4.69837 3.00009 3.84213 3.25812 3.10577 3.74351C2.3694 4.22889 1.78379 4.92128 1.41835 5.73859C1.05292 6.55589 0.922988 7.46384 1.04397 8.35478C1.16494 9.24573 1.53176 10.0823 2.10092 10.7654L7.99968 17.8443V22.2004C7.99968 22.3867 8.04185 22.5704 8.12285 22.737C8.20385 22.9037 8.32145 23.0486 8.46635 23.1604L13.1331 26.7605C13.3066 26.8937 13.5125 26.9749 13.7282 26.9951C13.9438 27.0152 14.1606 26.9735 14.3546 26.8745C14.5485 26.7748 14.7116 26.6215 14.8256 26.4318C14.9396 26.2421 14.9999 26.0235 14.9998 25.8005V17.8443L20.8985 10.7654C21.6091 9.91285 21.9998 8.82702 21.9999 7.70409ZM19.1275 9.20412L12.9476 16.6203C12.7664 16.8379 12.6666 17.1149 12.6664 17.4015V23.4016L10.333 21.6016V17.4015C10.3334 17.1148 10.2336 16.8376 10.0519 16.6203L3.87194 9.20292C3.59396 8.86804 3.41499 8.4583 3.35618 8.02212C3.29737 7.58595 3.36118 7.14158 3.54007 6.74152C3.71896 6.34146 4.00545 6.00244 4.36569 5.76451C4.72593 5.52658 5.14486 5.3997 5.57297 5.39885H17.4265C17.8546 5.3997 18.2735 5.52658 18.6338 5.76451C18.994 6.00244 19.2805 6.34146 19.4594 6.74152C19.6383 7.14158 19.7021 7.58595 19.6433 8.02212C19.5845 8.4583 19.4055 8.86924 19.1275 9.20412ZM29 24.6016C29 24.9199 28.8771 25.2251 28.6583 25.4502C28.4395 25.6752 28.1427 25.8017 27.8333 25.8017H18.4998C18.1904 25.8017 17.8937 25.6752 17.6749 25.4502C17.4561 25.2251 17.3332 24.9199 17.3332 24.6016C17.3332 24.2834 17.4561 23.9781 17.6749 23.7531C17.8937 23.528 18.1904 23.4016 18.4998 23.4016H27.8333C28.1427 23.4016 28.4395 23.528 28.6583 23.7531C28.8771 23.9781 29 24.2834 29 24.6016ZM29 19.8015C29 20.1198 28.8771 20.425 28.6583 20.6501C28.4395 20.8751 28.1427 21.0016 27.8333 21.0016H18.4998C18.1904 21.0016 17.8937 20.8751 17.6749 20.6501C17.4561 20.425 17.3332 20.1198 17.3332 19.8015C17.3332 19.4833 17.4561 19.178 17.6749 18.953C17.8937 18.7279 18.1904 18.6015 18.4998 18.6015H27.8333C28.1427 18.6015 28.4395 18.7279 28.6583 18.953C28.8771 19.178 29 19.4833 29 19.8015ZM21.9999 13.8014H27.8333C28.1427 13.8014 28.4395 13.9278 28.6583 14.1529C28.8771 14.3779 29 14.6832 29 15.0014C29 15.3197 28.8771 15.6249 28.6583 15.85C28.4395 16.075 28.1427 16.2015 27.8333 16.2015H21.9999C21.6905 16.2015 21.3937 16.075 21.1749 15.85C20.9561 15.6249 20.8332 15.3197 20.8332 15.0014C20.8332 14.6832 20.9561 14.3779 21.1749 14.1529C21.3937 13.9278 21.6905 13.8014 21.9999 13.8014Z" fill="#001017" fill-opacity="0.8"/>
</svg>
