<svg
    xmlns="http://www.w3.org/2000/svg"
    viewBox="0 0 18 18"
    id="vector">
    <path
        id="path"
        d="M 9 17.063 C 8.415 17.063 7.845 16.763 7.455 16.237 L 6.698 15.225 C 6.54 15.015 6.33 14.895 6.105 14.88 C 5.88 14.873 5.655 14.97 5.475 15.158 L 5.048 14.775 L 5.46 15.158 C 4.38 16.313 3.547 16.222 3.15 16.065 C 2.745 15.908 2.063 15.39 2.063 13.725 L 2.063 5.28 C 2.063 1.95 3.023 0.938 6.165 0.938 L 11.835 0.938 C 14.977 0.938 15.938 1.95 15.938 5.28 L 15.938 13.725 C 15.938 15.382 15.255 15.9 14.85 16.065 C 14.453 16.222 13.627 16.313 12.54 15.158 C 12.36 14.962 12.142 14.858 11.903 14.88 C 11.677 14.895 11.46 15.015 11.302 15.225 L 10.545 16.237 C 10.155 16.763 9.585 17.063 9 17.063 Z M 6.06 13.748 C 6.09 13.748 6.128 13.748 6.157 13.748 C 6.713 13.778 7.238 14.07 7.59 14.542 L 8.347 15.555 C 8.715 16.042 9.278 16.042 9.645 15.555 L 10.403 14.542 C 10.762 14.07 11.28 13.778 11.842 13.748 C 12.398 13.717 12.953 13.95 13.358 14.385 C 13.927 14.993 14.302 15.068 14.43 15.015 C 14.61 14.94 14.805 14.505 14.805 13.725 L 14.805 5.28 C 14.805 2.572 14.333 2.063 11.828 2.063 L 6.165 2.063 C 3.66 2.063 3.188 2.572 3.188 5.28 L 3.188 13.725 C 3.188 14.512 3.382 14.948 3.563 15.015 C 3.69 15.068 4.065 14.993 4.635 14.385 C 5.04 13.972 5.543 13.748 6.06 13.748 Z"
        fill="#000000"/>
    <path
        id="path_1"
        d="M 12 5.813 L 6 5.813 C 5.693 5.813 5.438 5.557 5.438 5.25 C 5.438 4.943 5.693 4.688 6 4.688 L 12 4.688 C 12.307 4.688 12.563 4.943 12.563 5.25 C 12.563 5.557 12.307 5.813 12 5.813 Z"
        fill="#000000"/>
    <path
        id="path_2"
        d="M 11.25 8.813 L 6.75 8.813 C 6.443 8.813 6.188 8.557 6.188 8.25 C 6.188 7.943 6.443 7.688 6.75 7.688 L 11.25 7.688 C 11.557 7.688 11.813 7.943 11.813 8.25 C 11.813 8.557 11.557 8.813 11.25 8.813 Z"
        fill="#000000"/>
</svg>
