<svg width="70" height="70" viewBox="0 0 70 70" fill="none" xmlns="http://www.w3.org/2000/svg">
<path d="M48.6312 54.9942C48.0198 54.9925 47.4147 54.8687 46.851 54.6298C46.2873 54.391 45.7761 54.0419 45.347 53.6027L35.1818 43.4142L25.0166 53.6094C24.3638 54.2772 23.5266 54.7312 22.614 54.9122C21.7015 55.0932 20.7561 54.9929 19.901 54.6243C19.0374 54.274 18.2986 53.6694 17.7811 52.8893C17.2636 52.1093 16.9915 51.19 17.0002 50.2516V23.3321C17.0002 21.1223 17.8709 19.003 19.4208 17.4404C20.9706 15.8778 23.0727 15 25.2646 15L45.099 15C46.1843 15 47.259 15.2155 48.2617 15.6342C49.2644 16.053 50.1754 16.6667 50.9428 17.4404C51.7103 18.2141 52.319 19.1327 52.7343 20.1436C53.1496 21.1545 53.3634 22.2379 53.3634 23.3321V50.2516C53.3727 51.1892 53.1015 52.1079 52.5852 52.8879C52.069 53.6679 51.3316 54.273 50.4692 54.6243C49.8871 54.8697 49.2622 54.9955 48.6312 54.9942ZM25.2646 18.3329C23.9495 18.3329 22.6882 18.8596 21.7583 19.7971C20.8284 20.7347 20.3059 22.0062 20.3059 23.3321V50.2516C20.3054 50.5292 20.3864 50.8009 20.5388 51.0321C20.6913 51.2634 20.9083 51.4439 21.1625 51.5509C21.4166 51.6579 21.6965 51.6866 21.9668 51.6333C22.2371 51.58 22.4857 51.4471 22.6811 51.2514L34.0248 39.8847C34.3345 39.5744 34.7534 39.4001 35.1901 39.4001C35.6267 39.4001 36.0457 39.5744 36.3553 39.8847L47.6858 51.2481C47.8812 51.4437 48.1298 51.5766 48.4001 51.6299C48.6704 51.6832 48.9503 51.6546 49.2045 51.5476C49.4586 51.4406 49.6756 51.2601 49.8281 51.0288C49.9805 50.7975 50.0616 50.5259 50.061 50.2482V23.3321C50.061 22.0062 49.5385 20.7347 48.6086 19.7971C47.6787 18.8596 46.4175 18.3329 45.1024 18.3329H25.2646Z" fill="#019CDE" fill-opacity="0.5"/>
</svg>
