<svg width="70" height="70" viewBox="0 0 70 70" fill="none" xmlns="http://www.w3.org/2000/svg">
<path d="M46.6643 25.0023H44.6211C46.9759 22.7025 47.3359 19.6777 45.5293 17.2695C45.0849 16.6723 44.5261 16.1693 43.8855 15.7899C43.245 15.4106 42.5353 15.1623 41.798 15.0597C41.0613 14.9514 40.3104 14.9908 39.5891 15.1757C38.8678 15.3605 38.1904 15.6871 37.5966 16.1363C36.4667 16.9829 35.6334 18.0611 35.0185 19.1577C34.4035 18.0595 33.5703 16.9829 32.4403 16.1363C31.8468 15.687 31.1698 15.3604 30.4488 15.1756C29.7277 14.9908 28.9771 14.9514 28.2407 15.0597C27.5034 15.1627 26.7939 15.4111 26.1534 15.7904C25.5128 16.1698 24.954 16.6725 24.5093 17.2695C22.7127 19.6644 23.0594 22.6691 25.4209 25.0023H23.3327C18.738 25.0023 15 28.7403 15 33.335V46.6673C15 51.262 18.738 55 23.3327 55H46.6643C51.2589 55 54.997 51.262 54.997 46.6673V33.335C54.997 28.7403 51.2589 25.0023 46.6643 25.0023ZM39.5981 18.8027C40.0064 18.4961 40.4931 18.3361 40.993 18.3361C41.6646 18.3361 42.4896 18.7711 42.8645 19.2694C43.9328 20.6926 42.9362 22.0092 42.2929 22.6241C39.6915 24.9323 36.9317 25.0023 36.6967 25.0039H36.675C36.7071 24.8489 36.7167 24.6901 36.7033 24.5323L36.7 24.4973C36.8483 23.5007 37.4683 20.3993 39.5981 18.8027ZM27.7924 22.6625C27.1024 22.0042 26.1075 20.6926 27.1757 19.2677C27.5507 18.7694 28.0957 18.4461 28.7123 18.3578C29.3339 18.2778 29.9439 18.4294 30.4422 18.8027C32.5737 20.401 33.1936 23.5057 33.3419 24.4957L33.3386 24.5306C33.3253 24.6884 33.3348 24.8473 33.3669 25.0023H33.3453C33.1103 25.0023 30.3505 24.9306 27.7924 22.6625ZM23.3327 28.3337H33.0386C31.7871 31.5851 26.9291 31.6651 26.6624 31.6668C26.4436 31.6669 26.2269 31.7101 26.0248 31.7939C25.8226 31.8778 25.6389 32.0006 25.4843 32.1555C25.1719 32.4682 24.9965 32.8922 24.9967 33.3341C24.9968 33.553 25.0401 33.7697 25.1239 33.9718C25.2078 34.174 25.3306 34.3576 25.4854 34.5123C25.6403 34.667 25.8241 34.7897 26.0263 34.8733C26.2285 34.957 26.4453 35 26.6641 34.9999C29.0256 34.9999 32.8253 34.1866 34.9968 31.5734C37.1683 34.1882 40.968 34.9999 43.3295 34.9999C43.7715 34.9999 44.1954 34.8243 44.5079 34.5117C44.8205 34.1992 44.996 33.7753 44.996 33.3333C44.996 32.8913 44.8205 32.4674 44.5079 32.1549C44.1954 31.8424 43.7715 31.6668 43.3295 31.6668C43.0929 31.6668 38.1999 31.6234 36.9517 28.3337H46.6626C49.419 28.3337 51.6622 30.5769 51.6622 33.3333V43.3326H18.3331V33.3333C18.3331 30.5769 20.5762 28.3337 23.3327 28.3337ZM46.6643 51.6653H23.3327C20.5762 51.6653 18.3331 49.4221 18.3331 46.6656H51.6639C51.6639 49.4221 49.4207 51.6653 46.6643 51.6653Z" fill="#001017"/>
</svg>
